Coordinates
version=1
nRows=16
nColumns=36
inDegrees=yes

Units are S.I. units (second, meters, Newtons, ...)
If the header above contains a line with 'inDegrees', this indicates whether rotational values are in degrees (yes) or radians (no).

endheader
time	pelvis_tilt	pelvis_list	pelvis_rotation	pelvis_tx	pelvis_ty	pelvis_tz	hip_flexion_r	hip_adduction_r	hip_rotation_r	knee_angle_r	knee_angle_r_beta	ankle_angle_r	subtalar_angle_r	mtp_angle_r	hip_flexion_l	hip_adduction_l	hip_rotation_l	knee_angle_l	knee_angle_l_beta	ankle_angle_l	subtalar_angle_l	mtp_angle_l	lumbar_extension	lumbar_bending	lumbar_rotation	arm_flex_r	arm_add_r	arm_rot_r	elbow_flex_r	pro_sup_r	arm_flex_l	arm_add_l	arm_rot_l	elbow_flex_l	pro_sup_l
      1.67000000	    -17.77878610	     -4.48734986	      1.54541156	     -0.26443255	      0.69526713	     -0.61190547	     73.26522564	    -10.67541207	      1.89539020	     91.59426789	      1.59862155	     31.61490600	     -4.64233901	     -7.44514563	     74.88416143	     -9.06151934	     11.52988224	     94.03126013	      1.64115509	     31.35304604	     -8.08037622	     -7.44514563	    -30.52313030	      4.64746580	      5.39981799	     77.62698539	    -14.06861528	      5.34117652	    115.01776245	     95.10111912	     67.25030450	    -29.07119472	     14.69281982	    119.94065735	    111.36308457
      1.68000000	    -17.67332170	     -4.75172981	      1.53692029	     -0.25995210	      0.70428614	     -0.61236780	     71.74191261	    -10.53359395	      1.29565167	     90.02739732	      1.57127450	     31.16560448	     -4.53174023	     -7.44549926	     73.54686785	     -9.28370023	     11.55093755	     92.58554080	      1.61592253	     31.03598082	     -8.03813248	     -7.44549926	    -29.30515249	      4.73526746	      5.25799855	     77.43706463	    -15.09413571	      5.71842717	    118.02881828	     95.34992623	     67.99239882	    -30.45108319	     15.31892079	    123.31781207	    111.64711904
      1.69000000	    -17.55074958	     -5.02056004	      1.54554531	     -0.25542948	      0.71417413	     -0.61291261	     70.09566974	    -10.46360761	      0.53455996	     88.25086807	      1.54026822	     30.65984979	     -4.52813818	     -7.44590389	     72.11119960	     -9.55066724	     11.46435301	     90.97084102	      1.58774070	     30.59428768	     -8.03928256	     -7.44590389	    -28.06409074	      4.85519032	      5.04982342	     77.36638766	    -16.19037209	      6.04206039	    120.91266004	     95.61326176	     68.98192251	    -32.16457911	     15.74179462	    126.18075254	    111.86333941
      1.70000000	    -17.32024484	     -5.26265056	      1.57976444	     -0.25093888	      0.72517724	     -0.61366274	     68.20746870	    -10.39873191	     -0.25182656	     86.19062992	      1.50431028	     29.60286787	     -5.29765705	     -7.44812033	     70.46445362	     -9.78956315	     11.28815068	     89.11899653	      1.55541992	     29.51462256	     -8.67977316	     -7.44812033	    -26.85215766	      4.95080028	      4.74482548	     77.23400711	    -17.30574453	      6.46520439	    123.26753134	     95.98158229	     70.27018850	    -33.98575762	     16.22770273	    128.48271599	    111.91476323
      1.71000000	    -17.10535719	     -5.57197508	      1.56936612	     -0.24619434	      0.73703002	     -0.61430790	     66.18198997	    -10.23769420	     -1.10659163	     83.90339672	      1.46439053	     28.93219745	     -5.20246742	     -7.44893967	     68.78994522	    -10.23929657	     11.02225761	     87.14246525	      1.52092294	     28.81589309	     -8.56629082	     -7.44893967	    -25.50732508	      5.14551724	      4.45500296	     76.83187813	    -18.40485987	      7.27342206	    125.33466131	     96.20274071	     71.38682579	    -35.64512807	     16.69464776	    130.68311976	    112.20104917
      1.72000000	    -16.96124919	     -5.94653188	      1.42064531	     -0.24134179	      0.74958852	     -0.61434507	     64.15065066	     -9.80235700	     -1.95854685	     81.38836223	      1.42049489	     27.99716197	     -5.23526139	     -7.44964354	     67.15011242	    -10.94480551	     10.70161001	     85.01655806	      1.48381886	     27.87584035	     -8.46190920	     -7.44964354	    -24.01425777	      5.32049312	      4.29296223	     76.20340926	    -19.51355503	      8.20651822	    127.15722708	     96.35235817	     72.51872407	    -37.23487521	     17.67312523	    132.86336232	    112.48751742
      1.73000000	    -16.81907497	     -6.24611057	      1.29350691	     -0.23630159	      0.76299594	     -0.61446607	     62.07228525	     -9.38969246	     -2.73686350	     78.67354738	      1.37311244	     26.45034400	     -5.83984572	     -7.45106943	     65.37920862	    -11.54560836	     10.29095007	     82.65904402	      1.44267247	     26.38482617	     -8.76747228	     -7.45106943	    -22.32894578	      5.42841560	      4.15331749	     75.15833166	    -20.67950933	      8.99811785	    128.56319113	     96.36557520	     73.60030751	    -38.64785887	     19.31520560	    134.54278635	    112.61999516
      1.74000000	    -16.62357166	     -6.40015883	      1.32561636	     -0.23087804	      0.77744847	     -0.61547304	     59.85987152	     -9.35584869	     -3.57890833	     75.81713715	      1.32325867	     24.90997221	     -5.69999489	     -7.45220507	     63.39339205	    -11.83353123	      9.76889282	     80.09303407	      1.39788715	     24.77282709	     -8.93746069	     -7.45220507	    -20.61211204	      5.53864297	      3.71561714	     73.80861662	    -21.75864278	      9.94114395	    129.69279644	     96.39121494	     74.14817352	    -40.05643380	     20.69741640	    136.11788456	    112.66972314
      1.75000000	    -16.45184119	     -6.44634643	      1.40859805	     -0.22503136	      0.79288314	     -0.61700977	     57.56753253	     -9.46066812	     -4.38388741	     72.75902451	      1.26988454	     23.68643345	     -5.16481484	     -7.45257871	     61.27371068	    -11.96442391	      9.10727152	     77.29351170	      1.34902627	     23.59787637	     -8.64536709	     -7.45257871	    -18.67482057	      5.63725417	      3.19750204	     71.79610526	    -22.77206409	     10.98940337	    130.35341545	     96.45294334	     73.71618621	    -41.15982361	     21.75690501	    137.26955522	    112.74571154
      1.76000000	    -16.05681757	     -6.63102695	      1.40890281	     -0.21892033	      0.80986649	     -0.61831016	     54.87941881	     -9.30654635	     -5.35439164	     69.31282700	      1.20973705	     21.48244889	     -4.71387555	     -7.45308586	     58.83775900	    -12.34202756	      8.41823351	     74.23156163	      1.29558516	     21.46053467	     -8.63460601	     -7.45308586	    -17.05468710	      5.80974317	      2.72691125	     69.47109270	    -23.78950769	     12.22035976	    130.82294062	     96.52533834	     72.95610002	    -42.36748704	     23.49699296	    138.40173085	    112.86116934
      1.77000000	    -15.61513986	     -6.77863037	      1.34186051	     -0.21268482	      0.82804721	     -0.61939855	     52.02760113	     -8.92376591	     -6.12709243	     65.41855599	      1.14176919	     17.75858918	     -6.06654105	     -7.45483673	     56.17219838	    -12.68663495	      7.69628571	     70.72635034	      1.23440768	     17.49641925	    -10.74050835	     -7.45483673	    -15.39687037	      5.84477352	      2.40983643	     66.48721025	    -24.82667980	     13.36384265	    130.78687066	     96.65104586	     71.67422415	    -43.24072245	     25.47001837	    139.02440266	    112.71863561
      1.78000000	    -15.12710216	     -6.65382898	      1.19865399	     -0.20547145	      0.84742210	     -0.62100833	     48.96735344	     -8.80560878	     -6.69933103	     61.30705842	      1.07001002	     15.81543863	     -4.99358161	     -7.45519589	     53.04809892	    -12.89670017	      6.63698547	     66.91872807	      1.16795214	     15.85336351	     -9.98223016	     -7.45519589	    -13.58418327	      5.68061341	      2.02303551	     62.77016760	    -25.48647462	     14.53726288	    130.36295119	     96.65856000	     68.62712931	    -43.90698208	     27.07020092	    139.41832784	    112.74199399
      1.79000000	    -14.28184249	     -6.55873910	      1.10323419	     -0.19802872	      0.86880606	     -0.62312309	     45.21896084	     -8.65944405	     -7.41599025	     56.44452368	      0.98514278	     11.35014689	     -5.06879123	     -7.45720416	     49.31961376	    -13.02758955	      5.43500400	     62.46732039	      1.09026042	     11.17017725	    -11.64729999	     -7.45720416	    -12.38892150	      5.69692052	      1.58437268	     59.21819817	    -25.83492966	     15.65271150	    129.31281641	     96.80513283	     64.36425403	    -44.49393685	     27.32351665	    139.72586790	    112.60260017
      1.80000000	    -13.49529194	     -6.46861003	      0.90805758	     -0.18997671	      0.89121399	     -0.62512101	     41.23050189	     -8.39423891	     -8.08156246	     50.97997871	      0.88976848	      7.68625921	     -3.75001231	     -7.45830219	     45.37448881	    -13.27611168	      4.05704909	     57.61353383	      1.00554586	      7.85864926	    -11.21646156	     -7.45830219	    -11.06790075	      5.60723921	      1.41026161	     54.91442841	    -26.42451577	     16.59483271	    128.07291846	     96.92086611	     59.44992690	    -44.61724870	     28.00016974	    139.44893682	    112.57607394
      1.81000000	    -12.65910142	     -6.41810536	      0.69296322	     -0.18153336	      0.91496057	     -0.62705494	     36.82186903	     -7.92879722	     -8.62467399	     44.66560085	      0.77956180	      3.09906669	     -2.28326415	     -7.45920973	     41.09174326	    -13.65127264	      2.27784467	     52.07483572	      0.90887734	      3.84283834	    -10.56000914	     -7.45920973	     -9.85942311	      5.53041718	      1.24922647	     50.23640813	    -27.02497888	     17.37037507	    126.36790002	     97.04164645	     53.80521922	    -44.37183386	     28.26406620	    138.67204811	    112.41275607
      1.82000000	    -11.78405600	     -6.30526795	      0.35952934	     -0.17284906	      0.93985386	     -0.62882082	     32.05086209	     -7.32817828	     -9.01930674	     37.39448879	      0.65265695	     -3.10106902	     -1.78144720	     -7.46100870	     36.39189566	    -13.96151603	      0.13729771	     45.76741011	      0.79879200	     -1.71697806	    -10.69462854	     -7.46100870	     -8.80767683	      5.44319162	      0.89153227	     45.66225243	    -27.07399598	     18.46178921	    123.79180402	     97.43686273	     47.02411040	    -43.86973543	     27.13453016	    137.67610812	    112.01693784
